<?xml version="1.0" encoding="iso-8859-1"?>
<!-- Uploaded to: SVG Repo, www.svgrepo.com, Generator: SVG Repo Mixer Tools -->
<svg height="800px" width="800px" version="1.1" id="Layer_1" xmlns="http://www.w3.org/2000/svg" xmlns:xlink="http://www.w3.org/1999/xlink" 
	 viewBox="0 0 512 512" xml:space="preserve">
<polygon style="fill:#00CFB4;" points="108.877,235.633 77.531,235.633 77.531,58.327 158.038,58.327 158.038,89.673 
	108.877,89.673 "/>
<polygon style="fill:#DFDFE2;" points="434.469,0 393.97,69.955 375.83,101.302 375.391,102.044 370.71,137.382 366.562,168.728 
	361.797,204.756 357.649,236.103 352.822,272.674 348.663,304.02 343.679,341.636 163.039,341.636 125.423,0 "/>
<polygon style="fill:#3E3D43;" points="343.686,341.632 163.025,341.632 137.034,512 369.677,512 "/>
<polygon style="fill:#D7D6D9;" points="434.469,0 393.97,69.955 375.83,101.302 375.391,102.044 370.71,137.382 366.562,168.728 
	361.797,204.756 357.649,236.103 352.822,272.674 348.663,304.02 343.679,341.636 255.982,341.636 255.982,0 "/>
<polygon style="fill:#2B292C;" points="369.676,511.995 255.982,511.995 255.982,341.636 343.69,341.636 "/>
<g>
	<polygon style="fill:#00CFB4;" points="393.975,69.957 375.825,101.304 265.182,101.304 265.182,69.957 	"/>
	<polygon style="fill:#00CFB4;" points="370.716,137.384 366.567,168.73 265.182,168.73 265.182,137.384 	"/>
	<polygon style="fill:#00CFB4;" points="361.803,204.758 357.654,236.105 265.182,236.105 265.182,204.758 	"/>
	<polygon style="fill:#00CFB4;" points="352.817,272.676 348.658,304.022 265.182,304.022 265.182,272.676 	"/>
</g>
</svg>